# xmcd
#
# Track frame offsets:
#	183
#	12875
#	22693
#	36183
#	47005
#	57090
#	68093
#	78625
#	90040
#	98555
#	109075
#	120193
#	131833
#	146290
#
# Disc length: 2075 seconds
#
# Revision: 4294901760
# Processed by: cddbd v1.5.2PL0 Copyright (c) Steve Scherf et al.
# Submitted via: EZCDAudioConverter 8.0.3.1
#
DISCID=9d08190e
DTITLE=Patsy Cline - 56 Greatest Country Songs
DYEAR=1990
DGENRE=Pop/Country
TTITLE0=I Fall To Pieces
TTITLE1=Heartaches
TTITLE2=Life's Railway To Heaven
TTITLE3=Stop, Look And Listen
TTITLE4=Walkin' Dream
TTITLE5=Don't Ever Leave Me
TTITLE6=That Wonderful Someone
TTITLE7=The Heart You Break May Be Your Own
TTITLE8=Come On In
TTITLE9=I Can See An Angel
TTITLE10=A Stranger In My Arms
TTITLE11=Never No More
TTITLE12=Then You'll Know
TTITLE13=Love Me Love Me Honey Do
EXTD=
EXTT0=
EXTT1=
EXTT2=
EXTT3=
EXTT4=
EXTT5=
EXTT6=
EXTT7=
EXTT8=
EXTT9=
EXTT10=
EXTT11=
EXTT12=
EXTT13=
PLAYORDER=
